HIERARCHY
ROOT hip
{
  OFFSET 0 0 0
  CHANNELS 6 Xposition Yposition Zposition Zrotation Yrotation Xrotation
  JOINT abdomen
  {
    OFFSET 0 20.6881 -0.73152
    CHANNELS 3 Zrotation Xrotation Yrotation
    JOINT chest
    {
      OFFSET 0 11.7043 -0.48768
      CHANNELS 3 Zrotation Xrotation Yrotation
      JOINT neck
      {
        OFFSET 0 22.1894 -2.19456
        CHANNELS 3 Zrotation Xrotation Yrotation
        JOINT head
        {
          OFFSET -0.24384 7.07133 1.2192
          CHANNELS 3 Zrotation Xrotation Yrotation
          JOINT leftEye
          {
            OFFSET 4.14528 8.04674 8.04672
            CHANNELS 3 Zrotation Xrotation Yrotation
            End Site
            {
              OFFSET 1 0 0
            }
          }
          JOINT rightEye
          {
            OFFSET -3.6576 8.04674 8.04672
            CHANNELS 3 Zrotation Xrotation Yrotation
            End Site
            {
              OFFSET 1 0 0
            }
          }
        }
      }
      JOINT rCollar
      {
        OFFSET -2.68224 19.2634 -4.8768
        CHANNELS 3 Zrotation Xrotation Yrotation
        JOINT rShldr
        {
          OFFSET -8.77824 -1.95073 1.46304
          CHANNELS 3 Zrotation Xrotation Yrotation
          JOINT rForeArm
          {
            OFFSET -28.1742 -1.7115 0.48768
            CHANNELS 3 Zrotation Xrotation Yrotation
            JOINT rHand
            {
              OFFSET -22.5879 0.773209 7.07136
              CHANNELS 3 Zrotation Xrotation Yrotation
              JOINT rThumb1
              {
                OFFSET -1.2192 -0.487915 3.41376
                CHANNELS 3 Zrotation Xrotation Yrotation
                JOINT rThumb2
                {
                  OFFSET -3.37035 -0.52449 3.41376
                  CHANNELS 3 Zrotation Xrotation Yrotation
                  End Site
                  {
                    OFFSET -1.78271 -1.18214 1.43049
                  }
                }
              }
              JOINT rIndex1
              {
                OFFSET -7.75947 0.938293 5.60832
                CHANNELS 3 Zrotation Xrotation Yrotation
                JOINT rIndex2
                {
                  OFFSET -2.54057 -0.884171 1.56538
                  CHANNELS 3 Zrotation Xrotation Yrotation
                  End Site
                  {
                    OFFSET -1.62519 -0.234802 1.16502
                  }
                }
              }
              JOINT rMid1
              {
                OFFSET -8.24714 1.18213 3.41376
                CHANNELS 3 Zrotation Xrotation Yrotation
                JOINT rMid2
                {
                  OFFSET -3.10165 -0.590103 1.0647
                  CHANNELS 3 Zrotation Xrotation Yrotation
                  End Site
                  {
                    OFFSET -2.48547 -0.328903 0.83742
                  }
                }
              }
              JOINT rRing1
              {
                OFFSET -8.82822 0.546677 1.51678
                CHANNELS 3 Zrotation Xrotation Yrotation
                JOINT rRing2
                {
                  OFFSET -2.60934 -0.819778 -0.0198488
                  CHANNELS 3 Zrotation Xrotation Yrotation
                  End Site
                  {
                    OFFSET -2.33842 -0.294052 0.168128
                  }
                }
              }
              JOINT rPinky1
              {
                OFFSET -8.27202 -0.0477905 -0.4584
                CHANNELS 3 Zrotation Xrotation Yrotation
                JOINT rPinky2
                {
                  OFFSET -1.82734 -0.647385 -0.700984
                  CHANNELS 3 Zrotation Xrotation Yrotation
                  End Site
                  {
                    OFFSET -1.69225 -0.51767 -0.607171
                  }
                }
              }
            }
          }
        }
      }
      JOINT lCollar
      {
        OFFSET 2.68224 19.2634 -4.8768
        CHANNELS 3 Zrotation Xrotation Yrotation
        JOINT lShldr
        {
          OFFSET 8.77824 -1.95073 1.46304
          CHANNELS 3 Zrotation Xrotation Yrotation
          JOINT lForeArm
          {
            OFFSET 28.1742 -1.7115 0.48768
            CHANNELS 3 Zrotation Xrotation Yrotation
            JOINT lHand
            {
              OFFSET 22.5879 0.773209 7.07136
              CHANNELS 3 Zrotation Xrotation Yrotation
              JOINT lThumb1
              {
                OFFSET 1.2192 -0.487915 3.41376
                CHANNELS 3 Zrotation Xrotation Yrotation
                JOINT lThumb2
                {
                  OFFSET 3.37035 -0.52449 3.41376
                  CHANNELS 3 Zrotation Xrotation Yrotation
                  End Site
                  {
                    OFFSET 1.78271 -1.18214 1.43049
                  }
                }
              }
              JOINT lIndex1
              {
                OFFSET 7.75947 0.938293 5.60832
                CHANNELS 3 Zrotation Xrotation Yrotation
                JOINT lIndex2
                {
                  OFFSET 2.54057 -0.884171 1.56538
                  CHANNELS 3 Zrotation Xrotation Yrotation
                  End Site
                  {
                    OFFSET 1.62519 -0.234802 1.16502
                  }
                }
              }
              JOINT lMid1
              {
                OFFSET 8.24714 1.18213 3.41376
                CHANNELS 3 Zrotation Xrotation Yrotation
                JOINT lMid2
                {
                  OFFSET 3.10165 -0.590103 1.0647
                  CHANNELS 3 Zrotation Xrotation Yrotation
                  End Site
                  {
                    OFFSET 2.48547 -0.328903 0.83742
                  }
                }
              }
              JOINT lRing1
              {
                OFFSET 8.82822 0.546677 1.51678
                CHANNELS 3 Zrotation Xrotation Yrotation
                JOINT lRing2
                {
                  OFFSET 2.60934 -0.819778 -0.0198488
                  CHANNELS 3 Zrotation Xrotation Yrotation
                  End Site
                  {
                    OFFSET 2.33842 -0.294052 0.168128
                  }
                }
              }
              JOINT lPinky1
              {
                OFFSET 8.27202 -0.0477905 -0.4584
                CHANNELS 3 Zrotation Xrotation Yrotation
                JOINT lPinky2
                {
                  OFFSET 1.82734 -0.647385 -0.700984
                  CHANNELS 3 Zrotation Xrotation Yrotation
                  End Site
                  {
                    OFFSET 1.69225 -0.51767 -0.607171
                  }
                }
              }
            }
          }
        }
      }
    }
  }
  JOINT rButtock
  {
    OFFSET -8.77824 4.35084 1.2192
    CHANNELS 3 Zrotation Xrotation Yrotation
    JOINT rThigh
    {
      OFFSET 0 -1.70687 -2.19456
      CHANNELS 3 Zrotation Xrotation Yrotation
      JOINT rShin
      {
        OFFSET 0 -36.8199 0.73152
        CHANNELS 3 Zrotation Xrotation Yrotation
        JOINT rFoot
        {
          OFFSET 0.73152 -45.1104 -5.12064
          CHANNELS 3 Zrotation Xrotation Yrotation
          End Site
          {
            OFFSET -1.1221 -3.69964 12.103
          }
        }
      }
    }
  }
  JOINT lButtock
  {
    OFFSET 8.77824 4.35084 1.2192
    CHANNELS 3 Zrotation Xrotation Yrotation
    JOINT lThigh
    {
      OFFSET 0 -1.70687 -2.19456
      CHANNELS 3 Zrotation Xrotation Yrotation
      JOINT lShin
      {
        OFFSET 0 -36.8199 0.73152
        CHANNELS 3 Zrotation Xrotation Yrotation
        JOINT lFoot
        {
          OFFSET -0.73152 -45.1104 -5.12064
          CHANNELS 3 Zrotation Xrotation Yrotation
          End Site
          {
            OFFSET 1.1221 -3.69964 12.103
          }
        }
      }
    }
  }
}
MOTION
Frames:	8
Frame Time:	0.03333
0.0 0.0 0.0 0.0 0.0 0.0 0.0 0.0 0.0 0.0 0.0 0.0 0.0 0.0 0.0 0.0 0.0 0.0 0.0 0.0 0.0 0.0 0.0 0.0 0.0 0.0 0.0 0.0 0.0 0.0 0.0 0.0 0.0 0.0 0.0 0.0 0.0 0.0 0.0 0.0 0.0 0.0 0.0 0.0 0.0 0.0 0.0 0.0 0.0 0.0 0.0 0.0 0.0 0.0 0.0 0.0 0.0 0.0 0.0 0.0 0.0 0.0 0.0 0.0 0.0 0.0 0.0 0.0 0.0 0.0 0.0 0.0 0.0 0.0 0.0 0.0 0.0 0.0 0.0 0.0 0.0 0.0 0.0 0.0 0.0 0.0 0.0 0.0 0.0 0.0 0.0 0.0 0.0 0.0 0.0 0.0 0.0 0.0 0.0 0.0 0.0 0.0 0.0 0.0 0.0 0.0 0.0 0.0 0.0 0.0 0.0 0.0 0.0 0.0 0.0 0.0 0.0 0.0 0.0 0.0 0.0 0.0 0.0 0.0 0.0 0.0 0.0 0.0 0.0 0.0 0.0 0.0
0.0039 62.3713 -0.1535 -179.509317 -45.76988 178.779872 -0.062065 -0.98028 178.104465 -3.163817 -12.393138 164.27802 7.796757 -17.084049 61.917876 -38.939573 -9.047602 -69.276826 58.684933 -8.884374 -15.73638 -56.184252 -24.718253 44.636745 -89.374068 -29.847748 165.190536 7.608499 -44.738687 4.854424 -174.94343 6.238791 -28.189741 -4.226707 18.080448 -64.727046 -94.694158 -1.375801 34.457763 168.129037 43.314465 -71.796511 146.091989 29.486286 -100.426473 -83.855892 43.57873 -94.348436 167.453972 43.200506 -109.977418 -140.139608 9.942808 150.3101 -87.047729 13.99993 -98.611668 5.490883 31.032164 -9.098223 -112.519531 22.304255 -76.255104 -124.734569 -26.623658 -124.955756 -81.039364 -22.878434 0.266793 -9.330876 0.416633 -5.976784 175.052631 -26.445551 14.55461 174.452386 59.158844 -95.432395 -88.046707 -27.551752 -53.6434 -171.638806 -32.637007 -92.048645 71.422094 18.771101 -38.014564 169.661719 -7.081635 -108.872018 89.761278 25.273492 -35.741331 146.988723 -22.439225 -111.615485 -5.991008 12.255817 112.224679 -1.271308 -36.701113 2.201339 1.313573 19.48535 86.099342 20.786034 -37.668704 37.19447 -41.166378 37.352607 -121.732379 1.962695 52.981133 -0.0 -0.848992 -6.254175 0.230342 50.159436 -57.294117 -121.934826 -1.551647 -50.68561 0.06351 3.859707 49.444311 -172.924573 -3.180193 -8.080799 -36.695293 74.967456 39.686066 -93.052831
-0.9721000000000001 64.6811 0.0415 173.982402 9.028136 -179.166579 -10.299463 9.502464 -102.349515 1.120618 5.010552 98.666973 -16.170798 23.286285 -93.323567 36.286799 17.02328 56.108192 47.433359 -13.142792 -29.386703 -2.478125 -0.78451 35.128244 1.556235 -36.650498 -10.678641 -126.954516 -11.31425 -159.652559 176.959336 -20.571061 -141.535529 -4.849042 25.530471 1.382043 90.637078 -51.987784 47.137542 -17.527043 -12.35635 -25.196915 -11.324631 -28.168368 -17.096274 -174.629654 -47.073205 91.120008 -163.006928 -26.374069 145.098353 7.71641 41.477012 13.430558 -21.938011 41.414006 19.872636 -133.701202 3.842196 160.123971 -82.788275 -55.279417 -53.105966 38.557235 23.959631 -29.630383 -1.268276 0.889511 -2.329467 107.37194 -0.733437 -173.298176 -78.921731 29.064661 117.866523 158.306095 60.370628 -135.289194 103.079246 41.162642 -63.083264 -54.013608 -57.792297 -6.271507 17.040771 29.404337 0.91196 -2.134178 -5.993916 -20.902514 172.687592 -67.03937 -151.346389 53.752776 45.14316 -52.720301 144.984267 -39.604761 153.767479 -59.730975 60.770126 45.141852 44.801327 -34.453121 13.763769 -25.67246 -2.917343 13.969687 -157.153398 79.561992 -21.279878 147.347763 21.652291 12.643034 12.875289 59.308688 76.462945 -72.299679 -77.731857 -171.825241 2.644522 -0.263278 -3.392342 10.530536 5.533831 100.11403 50.582795 3.041157 73.979844 -81.707536 -23.909908 -164.786391
-1.8787000000000003 61.875 -0.0707 173.460949 10.267671 179.588079 -14.413797 12.278306 50.394608 -0.699124 -10.226188 -56.693791 -16.307505 33.08981 -124.57447 29.837618 36.109706 82.27954 43.508868 -23.777971 -55.630888 -2.476739 -0.789797 35.368862 -155.992422 -4.196314 161.52934 -50.557289 39.468121 16.440293 -54.475367 -60.905465 -121.889127 150.015274 -50.536763 132.479458 -173.079329 -16.892439 84.029024 -141.163101 -8.33812 63.524849 19.845931 -73.031032 -29.500918 -124.196294 5.442211 93.509211 -31.057713 54.234223 25.206922 -86.129978 50.946565 66.878088 -139.34437 56.929853 145.536951 94.057239 -54.895762 79.440908 -92.314001 -36.768359 -57.027558 -164.211948 31.372514 -79.528418 26.781598 57.092355 -33.192399 84.757327 15.330487 -113.987544 -6.107085 6.334649 72.080666 -166.823965 -19.755905 -144.499041 -8.99195 -5.354542 8.897808 170.362378 -61.801283 -104.270535 12.841739 20.335696 -5.044923 168.675841 -14.524376 -99.461396 35.317811 52.896549 -26.987619 170.011966 -40.007953 -144.903706 129.085941 -52.123095 136.510899 -131.070189 66.355863 94.360055 -150.784899 66.714534 130.32275 90.700355 -45.248908 71.633025 1.537453 -9.846925 -1.685447 -45.279877 -50.636228 -38.554725 -21.762498 65.739809 5.697033 -69.892679 -38.441694 29.540673 171.145271 89.043075 0.0 -57.980595 65.135878 -67.001354 34.880082 33.14427 130.587907 45.756273 49.026026 -179.288391
-2.6925999999999997 58.3233 -0.24919999999999998 174.447544 10.443428 179.395869 -12.936065 16.233451 3.148566 5.312547 -11.851644 -11.118786 -21.044327 27.157055 -94.774564 31.25306 21.992277 53.73071 15.9482 8.118738 53.735934 -8.497589 -2.035166 26.892322 -150.664971 20.480628 152.318487 -83.485218 44.228696 53.584969 -3.80084 -59.327935 -80.188943 160.816061 -31.664815 139.120334 -170.383881 -12.657965 84.566809 30.873854 -51.098995 29.186893 4.142447 1.782719 -8.771467 -3.636327 -17.121778 7.860959 -88.942731 61.871331 74.954794 11.166882 -24.357116 22.013584 -146.865657 -21.666782 -165.412994 -153.642662 -30.425396 -155.756837 -9.115769 26.766041 1.869056 -76.828472 41.919037 153.631972 48.2335 -86.08146 71.990717 52.577673 -30.099785 81.744553 78.838819 -49.382553 119.5674 -63.410346 -66.641071 -49.366042 -1.433695 8.781551 2.949487 -78.087838 -76.473999 -17.567473 -0.507786 1.68595 12.965383 -21.618248 6.04425 -17.002106 2.466219 -13.645029 4.623513 -90.557428 -71.002577 -47.860605 150.229399 -17.3494 172.373884 172.889086 -0.633077 171.753591 -105.85841 80.633808 89.050355 155.828231 -3.534168 169.891118 74.882817 27.033158 51.34397 -135.243795 -0.016148 1.144762 65.493417 47.547731 9.70286 23.44811 -75.534365 -71.03006 0.316105 -1.224432 14.476853 15.173238 8.986224 -0.0 9.475416 36.962244 -2.171892 -85.656633 -40.0488 -9.469399
-2.9897 59.211999999999996 -0.23879999999999998 173.520144 9.403378 179.569421 -16.392011 14.608754 3.565475 8.096195 -10.570521 -11.987022 -19.291541 28.752645 -96.824117 33.071404 19.443806 54.683089 12.714825 4.687836 40.344768 -10.293552 -1.237363 13.672979 -118.91301 57.11451 118.520379 -2.172571 -4.255082 61.367957 77.244929 59.834335 -139.832757 173.598851 2.396188 146.667561 -12.591565 11.602661 6.284826 0.214542 -2.64933 1.255834 -138.564757 5.716999 122.437231 13.259782 -3.471849 -34.650933 -0.367764 -19.355961 0.291849 25.324093 -40.369497 -15.937935 -61.034274 74.795038 79.323418 -89.534517 -86.979396 -93.92321 20.081457 66.751954 12.344948 4.379729 60.718675 9.907391 26.366052 59.091188 -30.146407 108.90071 2.338908 -113.952944 -22.577218 -6.424844 59.270155 -173.939078 -3.95519 -146.375318 -22.917179 -12.29399 -1.726284 148.787638 -22.208544 -132.414246 132.886422 13.770015 -121.288224 -49.629484 -59.749689 -14.234159 148.963821 39.178693 -139.553105 147.012465 64.375009 -116.539287 147.806946 -23.120716 166.19786 169.460782 62.707342 -165.457296 8.716811 7.500008 6.78402 123.811961 29.147393 153.994855 -110.309087 64.827576 -38.838896 128.597115 -13.23951 -180.0 68.504293 -53.851701 163.023613 145.406663 -30.463958 -106.894344 -167.890804 67.380732 -13.084787 -139.262976 71.071697 162.048656 -24.190661 -39.806078 -144.30156 -100.165832 14.952149 -7.779471
-2.9105 60.305200000000006 -0.1565 172.178334 9.200034 179.863694 -18.963958 11.608787 3.153852 9.646769 -8.260523 -12.910167 1.459899 28.471947 106.641299 -32.554138 15.212426 -142.080341 14.375313 4.449143 34.240633 -9.540721 0.141503 -1.69551 -145.109314 37.155507 142.989359 -79.777059 26.495987 59.963826 173.590603 38.022209 -135.370692 -10.373187 46.619078 1.995022 -172.505317 -9.031299 90.120636 -175.382621 -14.518367 93.302822 57.09121 -79.80697 12.802001 -70.325769 52.797582 81.778971 -44.615956 48.828633 31.692924 4.070478 31.293492 16.56325 -6.432098 -10.200612 -0.029996 79.759731 -84.663763 49.721313 -144.646379 71.081478 -156.017637 -155.698976 44.110917 -115.656335 46.954674 67.45247 -50.60589 105.568328 6.803339 -105.114236 -111.917455 44.619439 102.708677 106.458281 75.607697 -89.267977 163.987864 -9.472812 -90.450163 -25.332304 -39.358503 -29.552251 39.000014 35.078212 -34.346731 -2.516916 30.03311 5.183209 -7.215094 -26.476772 12.872425 146.329851 -1.173046 -128.144974 135.251094 -36.785469 154.892891 6.882678 -62.411905 17.199134 11.7624 -5.057956 12.408889 -21.78947 -6.096967 -4.997594 2.726718 7.292227 -0.0 -67.778531 -59.387489 -65.21543 -21.584555 68.087846 52.585708 -76.097571 4.734721 15.353701 -169.842082 68.65629 -0.0 173.642016 80.819388 6.257079 -1.278851 46.669836 130.231783 -35.216104 -27.397923 -104.519062
-2.7734 60.217699999999994 0.06130000000000001 171.721447 9.704351 179.966461 -18.913558 10.597748 -0.0 9.619356 -6.790425 -9.683488 -20.957926 25.803422 -61.400269 36.485556 -0.552815 25.995918 13.6356 5.157934 41.286506 -8.891274 1.207365 -15.435925 -20.161694 41.937886 18.279526 -120.878174 -17.226692 140.225435 47.110335 -10.119458 -53.561322 173.660269 14.133409 148.423443 -168.626023 -3.156388 91.490092 147.471889 -42.553005 101.635771 -153.60033 -14.072609 127.182641 -41.110637 69.009756 23.769703 -166.686961 -7.646335 139.620022 -5.036876 -4.010408 17.701876 -158.83046 -6.565614 -176.759112 -82.107097 -65.731729 -94.331209 -135.986918 28.167095 -152.45253 24.881646 -41.518046 -3.069486 154.88408 -3.045139 -163.565805 -131.0712 -88.380651 176.947743 45.275753 9.506969 24.276541 -46.771683 -61.385874 -37.378157 2.649497 11.731835 4.796759 113.310629 9.059094 -87.040308 107.158918 28.338573 -88.099498 159.944603 -39.714898 -118.379092 -3.584426 0.330696 3.532359 5.642066 20.783678 -5.620662 44.216696 83.643836 -68.038413 -12.984488 25.901192 11.77009 84.947282 -41.275402 71.414962 150.1748 38.682862 124.12686 -0.727022 7.466401 1.021389 -67.317967 -59.629403 -64.754086 -46.5928 70.84396 -24.624865 13.772827 14.689112 81.965346 158.554367 69.695755 22.725892 -138.553548 81.105428 53.133771 48.332118 8.051235 84.617485 89.673922 65.19253 152.281101
